<?xml version="1.0" encoding="UTF-8" standalone="no"?>
<svg
   enable-background="new 0 0 32 32"
   viewBox="0 0 32 32"
   version="1.1"
   id="svg5"
   sodipodi:docname="blizzard.svg"
   inkscape:version="1.4.2 (ebf0e94, 2025-05-08)"
   xmlns:inkscape="http://www.inkscape.org/namespaces/inkscape"
   xmlns:sodipodi="http://sodipodi.sourceforge.net/DTD/sodipodi-0.dtd"
   xmlns="http://www.w3.org/2000/svg"
   xmlns:svg="http://www.w3.org/2000/svg">
  <defs
     id="defs5" />
  <sodipodi:namedview
     id="namedview5"
     pagecolor="#ffffff"
     bordercolor="#000000"
     borderopacity="0.25"
     inkscape:showpageshadow="2"
     inkscape:pageopacity="0.0"
     inkscape:pagecheckerboard="0"
     inkscape:deskcolor="#d1d1d1"
     inkscape:zoom="15.42"
     inkscape:cx="15.953307"
     inkscape:cy="16.245136"
     inkscape:window-width="1466"
     inkscape:window-height="800"
     inkscape:window-x="70"
     inkscape:window-y="27"
     inkscape:window-maximized="1"
     inkscape:current-layer="svg5"
     showgrid="false">
    <inkscape:grid
       id="grid1"
       units="px"
       originx="0"
       originy="0"
       spacingx="1"
       spacingy="1"
       empcolor="#0099e5"
       empopacity="0.30196078"
       color="#0099e5"
       opacity="0.14901961"
       empspacing="5"
       enabled="true"
       visible="false" />
  </sodipodi:namedview>
  <g
     id="Gui"
     display="none" />
  <path
     d="M 25.42,13.02 C 24.24,10.08 21.36,8 18,8 13.89,8 10.5,11.1 10.05,15.1 7.75,15.54 6,17.56 6,20 c 0,2.76 2.24,5 5,5 h 14 c 3.31,0 6,-2.69 6,-6 0,-3.17 -2.46,-5.76 -5.58,-5.98 z"
     fill="#bfbfbf"
     id="path1"
     style="fill:#e5e5e5;fill-opacity:1" />
  <path
     d="M 10.05,15.1 C 10.5,11.1 13.89,8 18,8 18.8,8 19.57,8.13 20.3,8.34 19.1,5.78 16.51,4 13.5,4 10.23,4 7.46,6.09 6.43,9 3.43,9.04 1,11.48 1,14.5 c 0,2.87 2.2,5.22 5,5.47 0.01,-2.42 1.75,-4.43 4.05,-4.87 z"
     fill="#7f7f7f"
     id="path2"
     style="fill:#adadad;fill-opacity:1" />
  <g
     fill="#a3d4f7"
     id="g18"
     transform="matrix(0.18883542,0,0,0.18883542,14.89323,12.69538)">
    <path
       d="m 69.88,36.48 h 3 v 12.79 h -3 z"
       transform="matrix(0.259,-0.966,0.966,0.259,11.49,100.73)"
       id="path1-3" />
    <path
       d="m 60.46,33.55 h 12.79 v 3 H 60.46 Z"
       transform="matrix(0.259,-0.966,0.966,0.259,15.69,90.54)"
       id="path2-5" />
    <path
       d="m 47.82,40.38 h 32.5 v 3 h -32.5 z"
       transform="matrix(0.866,-0.5,0.5,0.866,-12.35,37.65)"
       id="path3-0" />
    <path
       d="m 65.36,58.56 h 3 v 12.79 h -3 z"
       transform="matrix(0.966,-0.259,0.259,0.966,-14.53,19.52)"
       id="path4-5" />
    <path
       d="m 64.98,55.62 h 12.79 v 3 H 64.98 Z"
       transform="matrix(0.966,-0.258,0.258,0.966,-12.34,20.39)"
       id="path5" />
    <path
       d="m 62.57,41.88 h 3 v 32.5 h -3 z"
       transform="matrix(0.5,-0.866,0.866,0.5,-18.3,84.55)"
       id="path6" />
    <path
       d="m 39.08,70.57 h 12.79 v 3 H 39.08 Z"
       transform="matrix(0.707,-0.707,0.707,0.707,-37.64,53.27)"
       id="path7" />
    <path
       d="m 53.02,65.68 h 3 v 12.79 h -3 z"
       transform="matrix(0.707,-0.707,0.707,0.707,-34.99,59.66)"
       id="path8" />
    <path
       d="m 48.5,50 h 3 v 32.5 h -3 z"
       id="path9" />
    <path
       d="m 27.12,50.73 h 3 v 12.79 h -3 z"
       transform="matrix(0.259,-0.966,0.966,0.259,-33.96,69.99)"
       id="path10" />
    <path
       d="m 26.75,63.45 h 12.79 v 3 H 26.75 Z"
       transform="matrix(0.259,-0.966,0.966,0.259,-38.18,80.14)"
       id="path11" />
    <path
       d="m 19.68,56.63 h 32.5 v 3 h -32.5 z"
       transform="matrix(0.866,-0.5,0.5,0.866,-24.25,25.76)"
       id="path12" />
    <path
       d="m 31.64,28.65 h 3 v 12.79 h -3 z"
       transform="matrix(0.966,-0.259,0.259,0.966,-7.94,9.77)"
       id="path13" />
    <path
       d="m 22.23,41.38 h 12.79 v 3 H 22.23 Z"
       transform="matrix(0.966,-0.258,0.258,0.966,-10.11,8.85)"
       id="path14" />
    <path
       d="m 34.43,25.63 h 3 v 32.5 h -3 z"
       transform="matrix(0.5,-0.866,0.866,0.5,-18.3,52.05)"
       id="path15" />
    <path
       d="m 48.13,26.43 h 12.79 v 3 H 48.13 Z"
       transform="matrix(0.707,-0.707,0.707,0.707,-3.78,46.73)"
       id="path16" />
    <path
       d="m 43.98,21.53 h 3 v 12.79 h -3 z"
       transform="matrix(0.707,-0.707,0.707,0.707,-6.43,40.34)"
       id="path17" />
    <path
       d="m 48.5,17.5 h 3 V 50 h -3 z"
       id="path18" />
  </g>
  <ellipse
     style="fill:#e5e5e5;fill-opacity:1;stroke-width:1.50146"
     id="circle51"
     cx="7.7185788"
     cy="28.780308"
     rx="1.7185787"
     ry="1.6732341" />
  <ellipse
     style="fill:#e5e5e5;fill-opacity:1;stroke-width:1.50146"
     id="ellipse56"
     cx="11.718578"
     cy="28.780308"
     rx="1.7185787"
     ry="1.6732341" />
  <ellipse
     style="fill:#e5e5e5;fill-opacity:1;stroke-width:1.50146"
     id="ellipse57"
     cx="15.718578"
     cy="28.780308"
     rx="1.7185787"
     ry="1.6732341" />
</svg>
