<svg id="Layer_1" enable-background="new 0 0 512 512" height="512" viewBox="0 0 512 512" width="512" xmlns="http://www.w3.org/2000/svg"><g fill="#e6e6e6"><path d="m148 334.836h-67c-5.523 0-10-4.477-10-10s4.477-10 10-10h67c5.523 0 10 4.477 10 10s-4.477 10-10 10z"/><path d="m403 366.835h-175c-5.523 0-10-4.477-10-10s4.477-10 10-10h175c5.523 0 10 4.477 10 10s-4.477 10-10 10z"/><path d="m425 408.835h-120c-5.523 0-10-4.477-10-10s4.477-10 10-10h120c5.523 0 10 4.477 10 10s-4.477 10-10 10z"/><path d="m264 408.835h-120c-5.523 0-10-4.477-10-10s4.477-10 10-10h120c5.523 0 10 4.477 10 10s-4.477 10-10 10z"/></g><g><path d="m310.996 289.642h-186.375c-.129-.001-.256-.001-.383 0-33.216 0-60.238-27.022-60.238-60.237 0-31.376 24.11-57.226 54.779-59.992 3.787-43.483 40.392-77.71 84.84-77.71 40.237 0 74.205 27.936 82.969 65.855 7.736-2.963 15.986-4.497 24.408-4.497 37.655 0 68.29 30.635 68.29 68.29 0 37.656-30.635 68.291-68.29 68.291z" fill="#b3b3b3"/></g><g><path d="m393.174 330.538c-.115 0-.229 0-.342 0h-166.3c-34.193 0-62.012-27.818-62.012-62.012s27.818-62.012 62.012-62.012c7.232 0 14.323 1.245 21.015 3.657 8.357-33.71 38.805-58.405 74.796-58.405 39.92 0 72.848 30.506 76.692 69.431 27.486 2.934 48.965 26.264 48.965 54.515 0 30.231-24.595 54.826-54.826 54.826z" fill="#e6e6e6"/></g></svg>