<?xml version="1.0" encoding="UTF-8" standalone="no"?>
<svg
   enable-background="new 0 0 32 32"
   viewBox="0 0 32 32"
   version="1.1"
   id="svg4"
   sodipodi:docname="freezing-rain.svg"
   inkscape:version="1.4.2 (ebf0e94, 2025-05-08)"
   xml:space="preserve"
   inkscape:export-filename="../Projects/News/news/src/assets/weather/freezing-rain.png"
   inkscape:export-xdpi="192"
   inkscape:export-ydpi="192"
   xmlns:inkscape="http://www.inkscape.org/namespaces/inkscape"
   xmlns:sodipodi="http://sodipodi.sourceforge.net/DTD/sodipodi-0.dtd"
   xmlns="http://www.w3.org/2000/svg"
   xmlns:svg="http://www.w3.org/2000/svg"><defs
     id="defs4" /><sodipodi:namedview
     id="namedview4"
     pagecolor="#ffffff"
     bordercolor="#000000"
     borderopacity="0.25"
     inkscape:showpageshadow="2"
     inkscape:pageopacity="0.0"
     inkscape:pagecheckerboard="0"
     inkscape:deskcolor="#d1d1d1"
     inkscape:zoom="18.59375"
     inkscape:cx="16"
     inkscape:cy="16"
     inkscape:window-width="1466"
     inkscape:window-height="800"
     inkscape:window-x="70"
     inkscape:window-y="27"
     inkscape:window-maximized="1"
     inkscape:current-layer="svg4" /><g
     id="Gui"
     display="none" /><path
     d="M 23.63,10.03 C 22.58,6.54 19.34,4 15.5,4 10.94,4 7.23,7.59 7.02,12.1 4.73,12.55 3,14.57 3,17 c 0,2.76 2.24,5 5,5 h 15 c 3.31,0 6,-2.69 6,-6 0,-3.1 -2.35,-5.65 -5.37,-5.97 z"
     fill="#bfbfbf"
     id="path4"
     style="fill:#e5e5e5;fill-opacity:1" /><g
     fill="#a3d4f7"
     id="g18"
     transform="matrix(0.18883542,0,0,0.18883542,12.934096,11.443287)"><path
       d="m 69.88,36.48 h 3 v 12.79 h -3 z"
       transform="matrix(0.259,-0.966,0.966,0.259,11.49,100.73)"
       id="path1-3" /><path
       d="m 60.46,33.55 h 12.79 v 3 H 60.46 Z"
       transform="matrix(0.259,-0.966,0.966,0.259,15.69,90.54)"
       id="path2-5" /><path
       d="m 47.82,40.38 h 32.5 v 3 h -32.5 z"
       transform="matrix(0.866,-0.5,0.5,0.866,-12.35,37.65)"
       id="path3-0" /><path
       d="m 65.36,58.56 h 3 v 12.79 h -3 z"
       transform="matrix(0.966,-0.259,0.259,0.966,-14.53,19.52)"
       id="path4-5" /><path
       d="m 64.98,55.62 h 12.79 v 3 H 64.98 Z"
       transform="matrix(0.966,-0.258,0.258,0.966,-12.34,20.39)"
       id="path5" /><path
       d="m 62.57,41.88 h 3 v 32.5 h -3 z"
       transform="matrix(0.5,-0.866,0.866,0.5,-18.3,84.55)"
       id="path6" /><path
       d="m 39.08,70.57 h 12.79 v 3 H 39.08 Z"
       transform="matrix(0.707,-0.707,0.707,0.707,-37.64,53.27)"
       id="path7" /><path
       d="m 53.02,65.68 h 3 v 12.79 h -3 z"
       transform="matrix(0.707,-0.707,0.707,0.707,-34.99,59.66)"
       id="path8" /><path
       d="m 48.5,50 h 3 v 32.5 h -3 z"
       id="path9" /><path
       d="m 27.12,50.73 h 3 v 12.79 h -3 z"
       transform="matrix(0.259,-0.966,0.966,0.259,-33.96,69.99)"
       id="path10" /><path
       d="m 26.75,63.45 h 12.79 v 3 H 26.75 Z"
       transform="matrix(0.259,-0.966,0.966,0.259,-38.18,80.14)"
       id="path11" /><path
       d="m 19.68,56.63 h 32.5 v 3 h -32.5 z"
       transform="matrix(0.866,-0.5,0.5,0.866,-24.25,25.76)"
       id="path12" /><path
       d="m 31.64,28.65 h 3 v 12.79 h -3 z"
       transform="matrix(0.966,-0.259,0.259,0.966,-7.94,9.77)"
       id="path13" /><path
       d="m 22.23,41.38 h 12.79 v 3 H 22.23 Z"
       transform="matrix(0.966,-0.258,0.258,0.966,-10.11,8.85)"
       id="path14" /><path
       d="m 34.43,25.63 h 3 v 32.5 h -3 z"
       transform="matrix(0.5,-0.866,0.866,0.5,-18.3,52.05)"
       id="path15" /><path
       d="m 48.13,26.43 h 12.79 v 3 H 48.13 Z"
       transform="matrix(0.707,-0.707,0.707,0.707,-3.78,46.73)"
       id="path16" /><path
       d="m 43.98,21.53 h 3 v 12.79 h -3 z"
       transform="matrix(0.707,-0.707,0.707,0.707,-6.43,40.34)"
       id="path17" /><path
       d="m 48.5,17.5 h 3 V 50 h -3 z"
       id="path18" /></g><g
     id="g5"
     transform="matrix(0.73104601,0,0,0.73104601,-2.0287483,6.1808981)"><g
       id="g4"><path
         d="m 17.151513,23.458403 -2,3 c -0.31,0.46 -0.18,1.08 0.28,1.39 0.17,0.11 0.36,0.16 0.55,0.16 0.32,0 0.64,-0.16 0.83,-0.45 l 2,-3 c 0.31,-0.46 0.18,-1.08 -0.28,-1.39 -0.46,-0.3 -1.08,-0.17 -1.38,0.29 z"
         id="path3"
         style="fill:#0696ff;fill-opacity:1" /><path
         d="m 21.151513,23.458403 -2,3 c -0.31,0.46 -0.18,1.08 0.28,1.39 0.17,0.11 0.36,0.16 0.55,0.16 0.32,0 0.64,-0.16 0.83,-0.45 l 2,-3 c 0.31,-0.46 0.18,-1.08 -0.28,-1.39 -0.46,-0.3 -1.08,-0.17 -1.38,0.29 z"
         id="path4-3"
         style="fill:#0696ff;fill-opacity:1" /><path
         d="m 13.151513,23.458403 -2,3 c -0.31,0.46 -0.18,1.08 0.28,1.39 0.17,0.11 0.36,0.16 0.55,0.16 0.32,0 0.64,-0.16 0.83,-0.45 l 2,-3 c 0.31,-0.46 0.18,-1.08 -0.28,-1.39 -0.46,-0.3 -1.08,-0.17 -1.38,0.29 z"
         id="path5-2"
         style="fill:#0696ff;fill-opacity:1" /></g></g></svg>
