<?xml version="1.0" encoding="UTF-8" standalone="no"?>
<svg
   enable-background="new 0 0 32 32"
   viewBox="0 0 32 32"
   version="1.1"
   id="svg9"
   sodipodi:docname="light-rain.svg"
   inkscape:version="1.4.2 (ebf0e94, 2025-05-08)"
   inkscape:export-filename="../Projects/News/news/src/assets/weather/rain/partial-rain.png"
   inkscape:export-xdpi="192"
   inkscape:export-ydpi="192"
   xmlns:inkscape="http://www.inkscape.org/namespaces/inkscape"
   xmlns:sodipodi="http://sodipodi.sourceforge.net/DTD/sodipodi-0.dtd"
   xmlns="http://www.w3.org/2000/svg"
   xmlns:svg="http://www.w3.org/2000/svg">
  <defs
     id="defs9" />
  <sodipodi:namedview
     id="namedview9"
     pagecolor="#ffffff"
     bordercolor="#000000"
     borderopacity="0.25"
     inkscape:showpageshadow="2"
     inkscape:pageopacity="0.0"
     inkscape:pagecheckerboard="0"
     inkscape:deskcolor="#d1d1d1"
     inkscape:zoom="18.59375"
     inkscape:cx="15.973109"
     inkscape:cy="19.011765"
     inkscape:window-width="1466"
     inkscape:window-height="800"
     inkscape:window-x="70"
     inkscape:window-y="27"
     inkscape:window-maximized="1"
     inkscape:current-layer="svg9" />
  <g
     id="Gui"
     display="none" />
  <circle
     cx="11"
     cy="11"
     fill="#ffd901"
     r="6"
     id="circle1" />
  <path
     d="M 25.42,13.02 C 24.24,10.08 21.36,8 18,8 13.89,8 10.5,11.1 10.05,15.1 7.75,15.54 6,17.56 6,20 c 0,2.76 2.24,5 5,5 h 14 c 3.31,0 6,-2.69 6,-6 0,-3.17 -2.46,-5.76 -5.58,-5.98 z"
     fill="#bfbfbf"
     id="path1"
     style="fill:#e5e5e5;fill-opacity:1" />
  <path
     d="m 19.17,26.750834 -2,3 c -0.31,0.46 -0.18,1.08 0.28,1.39 0.17,0.11 0.36,0.16 0.55,0.16 0.32,0 0.64,-0.16 0.83,-0.45 l 2,-3 c 0.31,-0.46 0.18,-1.08 -0.28,-1.39 -0.46,-0.3 -1.08,-0.17 -1.38,0.29 z"
     fill="#0677ff"
     id="path2"
     style="fill:#0696ff;fill-opacity:1" />
  <path
     d="m 23.17,26.750834 -2,3 c -0.31,0.46 -0.18,1.08 0.28,1.39 0.17,0.11 0.36,0.16 0.55,0.16 0.32,0 0.64,-0.16 0.83,-0.45 l 2,-3 c 0.31,-0.46 0.18,-1.08 -0.28,-1.39 -0.46,-0.3 -1.08,-0.17 -1.38,0.29 z"
     fill="#0677ff"
     id="path3"
     style="fill:#0696ff;fill-opacity:1" />
  <path
     d="m 15.17,26.750834 -2,3 c -0.31,0.46 -0.18,1.08 0.28,1.39 0.17,0.11 0.36,0.16 0.55,0.16 0.32,0 0.64,-0.16 0.83,-0.45 l 2,-3 c 0.31,-0.46 0.18,-1.08 -0.28,-1.39 -0.46,-0.3 -1.08,-0.17 -1.38,0.29 z"
     fill="#0677ff"
     id="path4"
     style="fill:#0696ff;fill-opacity:1" />
  <g
     fill="#ffd901"
     id="g9">
    <path
       d="M 4,11 C 4,10.45 3.55,10 3,10 H 2 c -0.55,0 -1,0.45 -1,1 0,0.55 0.45,1 1,1 h 1 c 0.55,0 1,-0.45 1,-1 z"
       id="path5" />
    <path
       d="m 4.64,6.05 c 0.2,0.2 0.45,0.29 0.71,0.29 0.26,0 0.51,-0.1 0.71,-0.29 0.39,-0.39 0.39,-1.02 0,-1.41 L 5.34,3.93 C 4.95,3.54 4.32,3.54 3.93,3.93 3.54,4.32 3.54,4.95 3.93,5.34 Z"
       id="path6" />
    <path
       d="m 11,4 c 0.55,0 1,-0.45 1,-1 V 2 C 12,1.45 11.55,1 11,1 10.45,1 10,1.45 10,2 v 1 c 0,0.55 0.45,1 1,1 z"
       id="path7" />
    <path
       d="m 16.66,6.34 c 0.26,0 0.51,-0.1 0.71,-0.29 l 0.71,-0.71 c 0.39,-0.39 0.39,-1.02 0,-1.41 -0.39,-0.39 -1.02,-0.39 -1.41,0 l -0.71,0.71 c -0.39,0.39 -0.39,1.02 0,1.41 0.19,0.2 0.44,0.29 0.7,0.29 z"
       id="path8" />
    <path
       d="m 6.05,15.95 c -0.39,-0.39 -1.02,-0.39 -1.41,0 l -0.71,0.71 c -0.39,0.39 -0.39,1.02 0,1.41 0.2,0.2 0.45,0.29 0.71,0.29 0.26,0 0.51,-0.1 0.71,-0.29 L 6.06,17.36 C 6.44,16.97 6.44,16.34 6.05,15.95 Z"
       id="path9" />
  </g>
  <path
     d="m 15.17,26.750834 -2,3 c -0.31,0.46 -0.18,1.08 0.28,1.39 0.17,0.11 0.36,0.16 0.55,0.16 0.32,0 0.64,-0.16 0.83,-0.45 l 2,-3 c 0.31,-0.46 0.18,-1.08 -0.28,-1.39 -0.46,-0.3 -1.08,-0.17 -1.38,0.29 z"
     fill="#0677ff"
     id="path10"
     style="fill:#0696ff;fill-opacity:1" />
  <path
     d="m 19.17,26.750834 -2,3 c -0.31,0.46 -0.18,1.08 0.28,1.39 0.17,0.11 0.36,0.16 0.55,0.16 0.32,0 0.64,-0.16 0.83,-0.45 l 2,-3 c 0.31,-0.46 0.18,-1.08 -0.28,-1.39 -0.46,-0.3 -1.08,-0.17 -1.38,0.29 z"
     fill="#0677ff"
     id="path11"
     style="fill:#0696ff;fill-opacity:1" />
  <path
     d="m 11.17,26.750834 -2,3 c -0.31,0.46 -0.18,1.08 0.28,1.39 0.17,0.11 0.36,0.16 0.55,0.16 0.32,0 0.64,-0.16 0.83,-0.45 l 2,-3 c 0.31,-0.46 0.18,-1.08 -0.28,-1.39 -0.46,-0.3 -1.08,-0.17 -1.38,0.29 z"
     fill="#0677ff"
     id="path12"
     style="fill:#0696ff;fill-opacity:1" />
  <path
     d="m 23.17,26.750834 -2,3 c -0.31,0.46 -0.18,1.08 0.28,1.39 0.17,0.11 0.36,0.16 0.55,0.16 0.32,0 0.64,-0.16 0.83,-0.45 l 2,-3 c 0.31,-0.46 0.18,-1.08 -0.28,-1.39 -0.46,-0.3 -1.08,-0.17 -1.38,0.29 z"
     fill="#0677ff"
     id="path13"
     style="fill:#0696ff;fill-opacity:1" />
  <path
     d="m 19.17,26.750834 -2,3 c -0.31,0.46 -0.18,1.08 0.28,1.39 0.17,0.11 0.36,0.16 0.55,0.16 0.32,0 0.64,-0.16 0.83,-0.45 l 2,-3 c 0.31,-0.46 0.18,-1.08 -0.28,-1.39 -0.46,-0.3 -1.08,-0.17 -1.38,0.29 z"
     fill="#0677ff"
     id="path15"
     style="fill:#0696ff;fill-opacity:1" />
</svg>
