<?xml version="1.0" encoding="UTF-8" standalone="no"?>
<svg
   enable-background="new 0 0 32 32"
   viewBox="0 0 32 32"
   version="1.1"
   id="svg9"
   sodipodi:docname="partial-night.svg"
   inkscape:version="1.4.2 (ebf0e94, 2025-05-08)"
   inkscape:export-filename="../partial-night.png"
   inkscape:export-xdpi="192"
   inkscape:export-ydpi="192"
   xmlns:inkscape="http://www.inkscape.org/namespaces/inkscape"
   xmlns:sodipodi="http://sodipodi.sourceforge.net/DTD/sodipodi-0.dtd"
   xmlns="http://www.w3.org/2000/svg"
   xmlns:svg="http://www.w3.org/2000/svg">
  <defs
     id="defs9" />
  <sodipodi:namedview
     id="namedview9"
     pagecolor="#ffffff"
     bordercolor="#000000"
     borderopacity="0.25"
     inkscape:showpageshadow="2"
     inkscape:pageopacity="0.0"
     inkscape:pagecheckerboard="0"
     inkscape:deskcolor="#d1d1d1"
     inkscape:zoom="9.95"
     inkscape:cx="2.3115578"
     inkscape:cy="16.633166"
     inkscape:window-width="1466"
     inkscape:window-height="800"
     inkscape:window-x="70"
     inkscape:window-y="27"
     inkscape:window-maximized="1"
     inkscape:current-layer="svg9" />
  <g
     id="Gui"
     display="none" />
  <path
     d="M 25.42,13.02 C 24.24,10.08 21.36,8 18,8 13.89,8 10.5,11.1 10.05,15.1 7.75,15.54 6,17.56 6,20 c 0,2.76 2.24,5 5,5 h 14 c 3.31,0 6,-2.69 6,-6 0,-3.17 -2.46,-5.76 -5.58,-5.98 z"
     fill="#bfbfbf"
     id="path1"
     style="fill:#e5e5e5;fill-opacity:1" />
  <path
     d="M 4.7997198,4.5247273 A 4.4360073,4.4360073 0 0 1 7.4388081,1.9139552 C 4.7286906,1.0013475 1.7619486,2.3934053 0.74623287,5.0910193 -0.2920824,7.8486483 1.1016792,10.925863 3.8593291,11.964187 6.0096556,12.77384 8.3542831,12.104476 9.7749635,10.463009 A 4.4254056,4.4254056 0 0 1 7.3939681,10.252401 C 5.0959498,9.3871428 3.9344528,6.8227645 4.7997198,4.5247273 Z"
     fill="#ffd93b"
     id="path1-5"
     style="stroke-width:0.0216808" />
</svg>
