<?xml version="1.0" encoding="UTF-8" standalone="no"?>
<svg
   enable-background="new 0 0 32 32"
   viewBox="0 0 32 32"
   version="1.1"
   id="svg9"
   sodipodi:docname="partial-rain-night.svg"
   inkscape:version="1.4.2 (ebf0e94, 2025-05-08)"
   inkscape:export-filename="../partial-rain-night.png"
   inkscape:export-xdpi="192"
   inkscape:export-ydpi="192"
   xmlns:inkscape="http://www.inkscape.org/namespaces/inkscape"
   xmlns:sodipodi="http://sodipodi.sourceforge.net/DTD/sodipodi-0.dtd"
   xmlns="http://www.w3.org/2000/svg"
   xmlns:svg="http://www.w3.org/2000/svg">
  <defs
     id="defs9" />
  <sodipodi:namedview
     id="namedview9"
     pagecolor="#ffffff"
     bordercolor="#000000"
     borderopacity="0.25"
     inkscape:showpageshadow="2"
     inkscape:pageopacity="0.0"
     inkscape:pagecheckerboard="0"
     inkscape:deskcolor="#d1d1d1"
     inkscape:zoom="16.19"
     inkscape:cx="10.376776"
     inkscape:cy="14.422483"
     inkscape:window-width="1466"
     inkscape:window-height="800"
     inkscape:window-x="70"
     inkscape:window-y="27"
     inkscape:window-maximized="1"
     inkscape:current-layer="svg9" />
  <g
     id="Gui"
     display="none" />
  <path
     d="m 19.17,26.750834 -2,3 c -0.31,0.46 -0.18,1.08 0.28,1.39 0.17,0.11 0.36,0.16 0.55,0.16 0.32,0 0.64,-0.16 0.83,-0.45 l 2,-3 c 0.31,-0.46 0.18,-1.08 -0.28,-1.39 -0.46,-0.3 -1.08,-0.17 -1.38,0.29 z"
     fill="#0677ff"
     id="path2"
     style="fill:#0696ff;fill-opacity:1" />
  <path
     d="m 23.17,26.750834 -2,3 c -0.31,0.46 -0.18,1.08 0.28,1.39 0.17,0.11 0.36,0.16 0.55,0.16 0.32,0 0.64,-0.16 0.83,-0.45 l 2,-3 c 0.31,-0.46 0.18,-1.08 -0.28,-1.39 -0.46,-0.3 -1.08,-0.17 -1.38,0.29 z"
     fill="#0677ff"
     id="path3"
     style="fill:#0696ff;fill-opacity:1" />
  <path
     d="m 15.17,26.750834 -2,3 c -0.31,0.46 -0.18,1.08 0.28,1.39 0.17,0.11 0.36,0.16 0.55,0.16 0.32,0 0.64,-0.16 0.83,-0.45 l 2,-3 c 0.31,-0.46 0.18,-1.08 -0.28,-1.39 -0.46,-0.3 -1.08,-0.17 -1.38,0.29 z"
     fill="#0677ff"
     id="path4"
     style="fill:#0696ff;fill-opacity:1" />
  <path
     d="m 15.17,26.750834 -2,3 c -0.31,0.46 -0.18,1.08 0.28,1.39 0.17,0.11 0.36,0.16 0.55,0.16 0.32,0 0.64,-0.16 0.83,-0.45 l 2,-3 c 0.31,-0.46 0.18,-1.08 -0.28,-1.39 -0.46,-0.3 -1.08,-0.17 -1.38,0.29 z"
     fill="#0677ff"
     id="path10"
     style="fill:#0696ff;fill-opacity:1" />
  <path
     d="m 19.17,26.750834 -2,3 c -0.31,0.46 -0.18,1.08 0.28,1.39 0.17,0.11 0.36,0.16 0.55,0.16 0.32,0 0.64,-0.16 0.83,-0.45 l 2,-3 c 0.31,-0.46 0.18,-1.08 -0.28,-1.39 -0.46,-0.3 -1.08,-0.17 -1.38,0.29 z"
     fill="#0677ff"
     id="path11"
     style="fill:#0696ff;fill-opacity:1" />
  <path
     d="m 11.17,26.750834 -2,3 c -0.31,0.46 -0.18,1.08 0.28,1.39 0.17,0.11 0.36,0.16 0.55,0.16 0.32,0 0.64,-0.16 0.83,-0.45 l 2,-3 c 0.31,-0.46 0.18,-1.08 -0.28,-1.39 -0.46,-0.3 -1.08,-0.17 -1.38,0.29 z"
     fill="#0677ff"
     id="path12"
     style="fill:#0696ff;fill-opacity:1" />
  <path
     d="m 23.17,26.750834 -2,3 c -0.31,0.46 -0.18,1.08 0.28,1.39 0.17,0.11 0.36,0.16 0.55,0.16 0.32,0 0.64,-0.16 0.83,-0.45 l 2,-3 c 0.31,-0.46 0.18,-1.08 -0.28,-1.39 -0.46,-0.3 -1.08,-0.17 -1.38,0.29 z"
     fill="#0677ff"
     id="path13"
     style="fill:#0696ff;fill-opacity:1" />
  <path
     d="m 19.17,26.750834 -2,3 c -0.31,0.46 -0.18,1.08 0.28,1.39 0.17,0.11 0.36,0.16 0.55,0.16 0.32,0 0.64,-0.16 0.83,-0.45 l 2,-3 c 0.31,-0.46 0.18,-1.08 -0.28,-1.39 -0.46,-0.3 -1.08,-0.17 -1.38,0.29 z"
     fill="#0677ff"
     id="path15"
     style="fill:#0696ff;fill-opacity:1" />
  <path
     d="m 25.395595,13.034119 c -1.18,-2.94 -4.06,-5.0200005 -7.42,-5.0200005 -4.11,0 -7.5,3.1000005 -7.95,7.1000005 -2.2999997,0.44 -4.0499997,2.46 -4.0499997,4.9 0,2.76 2.24,5 4.9999997,5 h 14 c 3.31,0 6,-2.69 6,-6 0,-3.17 -2.46,-5.76 -5.58,-5.98 z"
     fill="#bfbfbf"
     id="path1-56"
     style="fill:#e5e5e5;fill-opacity:1" />
  <path
     d="m 5.1626753,4.5388458 a 4.4360073,4.4360073 0 0 1 2.639088,-2.6107721 c -2.710117,-0.9126077 -5.676859,0.4794501 -6.692575,3.1770641 -1.03831521,2.757629 0.355446,5.8348442 3.113096,6.8731682 2.150327,0.809653 4.494954,0.140289 5.9156327,-1.501178 A 4.4254056,4.4254056 0 0 1 7.7569233,10.26652 C 5.4589053,9.4012613 4.2974083,6.836883 5.1626753,4.5388458 Z"
     fill="#ffd93b"
     id="path1-5"
     style="stroke-width:0.0216808" />
</svg>
