<?xml version="1.0" encoding="UTF-8" standalone="no"?>
<svg
   enable-background="new 0 0 32 32"
   viewBox="0 0 32 32"
   version="1.1"
   id="svg5"
   sodipodi:docname="storm.svg"
   xml:space="preserve"
   inkscape:export-filename="../Projects/News/news/src/assets/weather/shower-storm.png"
   inkscape:export-xdpi="192"
   inkscape:export-ydpi="192"
   inkscape:version="1.4.2 (ebf0e94, 2025-05-08)"
   xmlns:inkscape="http://www.inkscape.org/namespaces/inkscape"
   xmlns:sodipodi="http://sodipodi.sourceforge.net/DTD/sodipodi-0.dtd"
   xmlns="http://www.w3.org/2000/svg"
   xmlns:svg="http://www.w3.org/2000/svg"><defs
     id="defs5" /><sodipodi:namedview
     id="namedview5"
     pagecolor="#ffffff"
     bordercolor="#000000"
     borderopacity="0.25"
     inkscape:showpageshadow="2"
     inkscape:pageopacity="0.0"
     inkscape:pagecheckerboard="0"
     inkscape:deskcolor="#d1d1d1"
     inkscape:zoom="18.59375"
     inkscape:cx="15.946218"
     inkscape:cy="19.173109"
     inkscape:window-width="1466"
     inkscape:window-height="800"
     inkscape:window-x="70"
     inkscape:window-y="27"
     inkscape:window-maximized="1"
     inkscape:current-layer="svg5" /><g
     id="Gui"
     display="none" /><path
     d="M 25.42,13.02 C 24.24,10.08 21.36,8 18,8 13.89,8 10.5,11.1 10.05,15.1 7.75,15.54 6,17.56 6,20 c 0,2.76 2.24,5 5,5 h 14 c 3.31,0 6,-2.69 6,-6 0,-3.17 -2.46,-5.76 -5.58,-5.98 z"
     fill="#bfbfbf"
     id="path1"
     style="fill:#adadad;fill-opacity:1" /><g
     id="g5"
     transform="matrix(0.73104601,0,0,0.73104601,-0.54199812,9.1995621)"><path
       d="m 17.151513,23.458403 -2,3 c -0.31,0.46 -0.18,1.08 0.28,1.39 0.17,0.11 0.36,0.16 0.55,0.16 0.32,0 0.64,-0.16 0.83,-0.45 l 2,-3 c 0.31,-0.46 0.18,-1.08 -0.28,-1.39 -0.46,-0.3 -1.08,-0.17 -1.38,0.29 z"
       id="path3"
       style="fill:#0696ff;fill-opacity:1" /><path
       d="m 21.151513,23.458403 -2,3 c -0.31,0.46 -0.18,1.08 0.28,1.39 0.17,0.11 0.36,0.16 0.55,0.16 0.32,0 0.64,-0.16 0.83,-0.45 l 2,-3 c 0.31,-0.46 0.18,-1.08 -0.28,-1.39 -0.46,-0.3 -1.08,-0.17 -1.38,0.29 z"
       id="path4"
       style="fill:#0696ff;fill-opacity:1" /><path
       d="m 13.151513,23.458403 -2,3 c -0.31,0.46 -0.18,1.08 0.28,1.39 0.17,0.11 0.36,0.16 0.55,0.16 0.32,0 0.64,-0.16 0.83,-0.45 l 2,-3 c 0.31,-0.46 0.18,-1.08 -0.28,-1.39 -0.46,-0.3 -1.08,-0.17 -1.38,0.29 z"
       id="path5"
       style="fill:#0696ff;fill-opacity:1" /></g><path
     d="M 10.05,15.1 C 10.5,11.1 13.89,8 18,8 18.8,8 19.57,8.13 20.3,8.34 19.1,5.78 16.51,4 13.5,4 10.23,4 7.46,6.09 6.43,9 3.43,9.04 1,11.48 1,14.5 c 0,2.87 2.2,5.22 5,5.47 0.01,-2.42 1.75,-4.43 4.05,-4.87 z"
     fill="#7f7f7f"
     id="path2" /><path
     d="m 21.705132,21.452364 h 3.219037 l -1.236692,1.909598 -5.149096,7.933926 3.030351,-7.933926 h -3.66461 l 0.777479,-1.909598 2.009625,-4.933129 h 3.612323 l 0.461486,0.0023 h 1.2276 z"
     fill="#fdd020"
     id="path1-7"
     style="stroke-width:0.227333" /></svg>
