<?xml version="1.0" encoding="UTF-8" standalone="no"?>
<svg
   enable-background="new 0 0 32 32"
   viewBox="0 0 32 32"
   version="1.1"
   id="svg4"
   sodipodi:docname="rain.svg"
   inkscape:version="1.4.2 (ebf0e94, 2025-05-08)"
   inkscape:export-filename="../Projects/News/news/src/assets/weather/rain/rain.png"
   inkscape:export-xdpi="192"
   inkscape:export-ydpi="192"
   xmlns:inkscape="http://www.inkscape.org/namespaces/inkscape"
   xmlns:sodipodi="http://sodipodi.sourceforge.net/DTD/sodipodi-0.dtd"
   xmlns="http://www.w3.org/2000/svg"
   xmlns:svg="http://www.w3.org/2000/svg">
  <defs
     id="defs4" />
  <sodipodi:namedview
     id="namedview4"
     pagecolor="#ffffff"
     bordercolor="#000000"
     borderopacity="0.25"
     inkscape:showpageshadow="2"
     inkscape:pageopacity="0.0"
     inkscape:pagecheckerboard="0"
     inkscape:deskcolor="#d1d1d1"
     inkscape:zoom="18.59375"
     inkscape:cx="15.973109"
     inkscape:cy="15.946218"
     inkscape:window-width="1466"
     inkscape:window-height="800"
     inkscape:window-x="70"
     inkscape:window-y="27"
     inkscape:window-maximized="1"
     inkscape:current-layer="svg4" />
  <g
     id="Gui"
     display="none" />
  <path
     d="m 23.072101,10.036807 c -1.18,-2.9400003 -4.06,-5.0200003 -7.42,-5.0200003 -4.11,0 -7.5000002,3.0999998 -7.9500002,7.1000003 -2.3,0.44 -4.05,2.46 -4.05,4.9 0,2.76 2.24,5 5,5 H 22.652101 c 3.31,0 6,-2.69 6,-6 0,-3.17 -2.46,-5.76 -5.58,-5.98 z"
     fill="#bfbfbf"
     id="path1"
     style="fill:#e5e5e5;fill-opacity:1" />
  <path
     d="m 12.822101,23.767641 -2,3 c -0.31,0.46 -0.18,1.08 0.28,1.39 0.17,0.11 0.36,0.16 0.55,0.16 0.32,0 0.64,-0.16 0.83,-0.45 l 2,-3 c 0.31,-0.46 0.18,-1.08 -0.28,-1.39 -0.46,-0.3 -1.08,-0.17 -1.38,0.29 z"
     fill="#0677ff"
     id="path10"
     style="fill:#0696ff;fill-opacity:1" />
  <path
     d="m 8.8221008,23.767641 -2,3 c -0.31,0.46 -0.18,1.08 0.28,1.39 0.17,0.11 0.36,0.16 0.55,0.16 0.32,0 0.64,-0.16 0.83,-0.45 l 2.0000002,-3 c 0.31,-0.46 0.18,-1.08 -0.28,-1.39 -0.4600002,-0.3 -1.0800002,-0.17 -1.3800002,0.29 z"
     fill="#0677ff"
     id="path12"
     style="fill:#0696ff;fill-opacity:1" />
  <path
     d="m 20.822101,23.767641 -2,3 c -0.31,0.46 -0.18,1.08 0.28,1.39 0.17,0.11 0.36,0.16 0.55,0.16 0.32,0 0.64,-0.16 0.83,-0.45 l 2,-3 c 0.31,-0.46 0.18,-1.08 -0.28,-1.39 -0.46,-0.3 -1.08,-0.17 -1.38,0.29 z"
     fill="#0677ff"
     id="path13"
     style="fill:#0696ff;fill-opacity:1" />
  <path
     d="m 16.822101,23.767641 -2,3 c -0.31,0.46 -0.18,1.08 0.28,1.39 0.17,0.11 0.36,0.16 0.55,0.16 0.32,0 0.64,-0.16 0.83,-0.45 l 2,-3 c 0.31,-0.46 0.18,-1.08 -0.28,-1.39 -0.46,-0.3 -1.08,-0.17 -1.38,0.29 z"
     fill="#0677ff"
     id="path15"
     style="fill:#0696ff;fill-opacity:1" />
</svg>
