<?xml version="1.0" encoding="UTF-8" standalone="no"?>
<svg
   enable-background="new 0 0 32 32"
   viewBox="0 0 32 32"
   version="1.1"
   id="svg5"
   sodipodi:docname="shower.svg"
   inkscape:version="1.4.2 (ebf0e94, 2025-05-08)"
   xmlns:inkscape="http://www.inkscape.org/namespaces/inkscape"
   xmlns:sodipodi="http://sodipodi.sourceforge.net/DTD/sodipodi-0.dtd"
   xmlns="http://www.w3.org/2000/svg"
   xmlns:svg="http://www.w3.org/2000/svg">
  <defs
     id="defs5" />
  <sodipodi:namedview
     id="namedview5"
     pagecolor="#ffffff"
     bordercolor="#000000"
     borderopacity="0.25"
     inkscape:showpageshadow="2"
     inkscape:pageopacity="0.0"
     inkscape:pagecheckerboard="0"
     inkscape:deskcolor="#d1d1d1"
     inkscape:zoom="18.59375"
     inkscape:cx="15.973109"
     inkscape:cy="15.946218"
     inkscape:window-width="1466"
     inkscape:window-height="800"
     inkscape:window-x="70"
     inkscape:window-y="27"
     inkscape:window-maximized="1"
     inkscape:current-layer="svg5" />
  <g
     id="Gui"
     display="none" />
  <path
     d="M 10.05,15.1 C 10.5,11.1 13.89,8 18,8 18.8,8 19.57,8.13 20.3,8.34 19.1,5.78 16.51,4 13.5,4 10.23,4 7.46,6.09 6.43,9 3.43,9.04 1,11.48 1,14.5 c 0,2.87 2.2,5.22 5,5.47 0.01,-2.42 1.75,-4.43 4.05,-4.87 z"
     fill="#7f7f7f"
     id="path2"
     style="fill:#adadad;fill-opacity:1" />
  <path
     d="m 25.433445,13.018318 c -1.18,-2.94 -4.06,-5.0199986 -7.42,-5.0199986 -4.11,0 -7.5,3.0999986 -7.95,7.0999986 -2.2999996,0.44 -4.0499996,2.46 -4.0499996,4.9 0,2.76 2.24,5 4.9999996,5 h 14 c 3.31,0 6,-2.69 6,-6 0,-3.17 -2.46,-5.76 -5.58,-5.98 z"
     fill="#bfbfbf"
     id="path1-6"
     style="fill:#e5e5e5;fill-opacity:1" />
  <path
     d="m 19.183445,26.749152 -2,3 c -0.31,0.46 -0.18,1.08 0.28,1.39 0.17,0.11 0.36,0.16 0.55,0.16 0.32,0 0.64,-0.16 0.83,-0.45 l 2,-3 c 0.31,-0.46 0.18,-1.08 -0.28,-1.39 -0.46,-0.3 -1.08,-0.17 -1.38,0.29 z"
     fill="#0677ff"
     id="path2-7"
     style="fill:#0696ff;fill-opacity:1" />
  <path
     d="m 23.183445,26.749152 -2,3 c -0.31,0.46 -0.18,1.08 0.28,1.39 0.17,0.11 0.36,0.16 0.55,0.16 0.32,0 0.64,-0.16 0.83,-0.45 l 2,-3 c 0.31,-0.46 0.18,-1.08 -0.28,-1.39 -0.46,-0.3 -1.08,-0.17 -1.38,0.29 z"
     fill="#0677ff"
     id="path3"
     style="fill:#0696ff;fill-opacity:1" />
  <path
     d="m 15.183445,26.749152 -2,3 c -0.31,0.46 -0.18,1.08 0.28,1.39 0.17,0.11 0.36,0.16 0.55,0.16 0.32,0 0.64,-0.16 0.83,-0.45 l 2,-3 c 0.31,-0.46 0.18,-1.08 -0.28,-1.39 -0.46,-0.3 -1.08,-0.17 -1.38,0.29 z"
     fill="#0677ff"
     id="path4"
     style="fill:#0696ff;fill-opacity:1" />
  <path
     d="m 15.183445,26.749152 -2,3 c -0.31,0.46 -0.18,1.08 0.28,1.39 0.17,0.11 0.36,0.16 0.55,0.16 0.32,0 0.64,-0.16 0.83,-0.45 l 2,-3 c 0.31,-0.46 0.18,-1.08 -0.28,-1.39 -0.46,-0.3 -1.08,-0.17 -1.38,0.29 z"
     fill="#0677ff"
     id="path10"
     style="fill:#0696ff;fill-opacity:1" />
  <path
     d="m 19.183445,26.749152 -2,3 c -0.31,0.46 -0.18,1.08 0.28,1.39 0.17,0.11 0.36,0.16 0.55,0.16 0.32,0 0.64,-0.16 0.83,-0.45 l 2,-3 c 0.31,-0.46 0.18,-1.08 -0.28,-1.39 -0.46,-0.3 -1.08,-0.17 -1.38,0.29 z"
     fill="#0677ff"
     id="path11"
     style="fill:#0696ff;fill-opacity:1" />
  <path
     d="m 11.183445,26.749152 -1.9999996,3 c -0.31,0.46 -0.18,1.08 0.28,1.39 0.17,0.11 0.36,0.16 0.5499996,0.16 0.32,0 0.64,-0.16 0.83,-0.45 l 2,-3 c 0.31,-0.46 0.18,-1.08 -0.28,-1.39 -0.46,-0.3 -1.08,-0.17 -1.38,0.29 z"
     fill="#0677ff"
     id="path12"
     style="fill:#0696ff;fill-opacity:1" />
  <path
     d="m 23.183445,26.749152 -2,3 c -0.31,0.46 -0.18,1.08 0.28,1.39 0.17,0.11 0.36,0.16 0.55,0.16 0.32,0 0.64,-0.16 0.83,-0.45 l 2,-3 c 0.31,-0.46 0.18,-1.08 -0.28,-1.39 -0.46,-0.3 -1.08,-0.17 -1.38,0.29 z"
     fill="#0677ff"
     id="path13"
     style="fill:#0696ff;fill-opacity:1" />
  <path
     d="m 19.183445,26.749152 -2,3 c -0.31,0.46 -0.18,1.08 0.28,1.39 0.17,0.11 0.36,0.16 0.55,0.16 0.32,0 0.64,-0.16 0.83,-0.45 l 2,-3 c 0.31,-0.46 0.18,-1.08 -0.28,-1.39 -0.46,-0.3 -1.08,-0.17 -1.38,0.29 z"
     fill="#0677ff"
     id="path15"
     style="fill:#0696ff;fill-opacity:1" />
</svg>
