<?xml version="1.0" encoding="UTF-8" standalone="no"?>
<svg
   id="Layer_1"
   viewBox="0 0 100 100"
   version="1.1"
   sodipodi:docname="sun.svg"
   inkscape:export-filename="../sun.png"
   inkscape:export-xdpi="61.439999"
   inkscape:export-ydpi="61.439999"
   inkscape:version="1.4.2 (ebf0e94, 2025-05-08)"
   xmlns:inkscape="http://www.inkscape.org/namespaces/inkscape"
   xmlns:sodipodi="http://sodipodi.sourceforge.net/DTD/sodipodi-0.dtd"
   xmlns="http://www.w3.org/2000/svg"
   xmlns:svg="http://www.w3.org/2000/svg">
  <defs
     id="defs8" />
  <sodipodi:namedview
     id="namedview8"
     pagecolor="#ffffff"
     bordercolor="#000000"
     borderopacity="0.25"
     inkscape:showpageshadow="2"
     inkscape:pageopacity="0.0"
     inkscape:pagecheckerboard="0"
     inkscape:deskcolor="#d1d1d1"
     inkscape:zoom="5.95"
     inkscape:cx="49.915966"
     inkscape:cy="52.352941"
     inkscape:window-width="1466"
     inkscape:window-height="800"
     inkscape:window-x="70"
     inkscape:window-y="27"
     inkscape:window-maximized="1"
     inkscape:current-layer="Layer_1"
     showgrid="true">
    <inkscape:grid
       id="grid1"
       units="px"
       originx="0"
       originy="0"
       spacingx="1"
       spacingy="1"
       empcolor="#0099e5"
       empopacity="0.30196078"
       color="#0099e5"
       opacity="0.14901961"
       empspacing="5"
       enabled="true"
       visible="true" />
  </sodipodi:namedview>
  <g
     id="g25"
     transform="matrix(0.16650143,0,0,0.16650143,9.9553441,9.8176534)">
    <circle
       style="fill:#fcd462"
       cx="240.94099"
       cy="240.94099"
       r="138.541"
       id="circle1" />
    <path
       style="fill:#f6c358"
       d="m 240.941,0 c -11.445,0 -20.48,9.035 -20.48,20.48 v 33.732 c 0,11.445 9.035,20.48 20.48,20.48 11.445,0 20.48,-9.035 20.48,-20.48 V 20.48 C 261.421,9.035 252.386,0 240.941,0 Z"
       id="path2" />
    <path
       style="fill:#f6c358"
       d="m 240.941,407.191 c -11.445,0 -20.48,9.035 -20.48,20.48 v 33.732 c 0,11.445 9.035,20.48 20.48,20.48 11.445,0 20.48,-9.035 20.48,-20.48 v -33.732 c 0,-11.445 -9.035,-20.48 -20.48,-20.48 z"
       id="path3" />
    <path
       style="fill:#f6c358"
       d="m 481.882,240.941 c 0,-11.445 -9.035,-20.48 -20.48,-20.48 H 427.67 c -11.445,0 -20.48,9.035 -20.48,20.48 0,11.445 9.035,20.48 20.48,20.48 h 33.732 c 11.445,0 20.48,-9.035 20.48,-20.48 z"
       id="path4" />
    <path
       style="fill:#f6c358"
       d="m 74.692,240.941 c 0,-11.445 -9.035,-20.48 -20.48,-20.48 H 20.48 c -11.445,0 -20.48,9.035 -20.48,20.48 0,11.445 9.035,20.48 20.48,20.48 h 33.732 c 11.444,0 20.48,-9.035 20.48,-20.48 z"
       id="path5" />
    <path
       style="fill:#f6c358"
       d="m 411.407,70.475 c -7.831,-7.831 -21.082,-7.831 -28.913,0 L 358.4,94.569 c -7.831,7.831 -7.831,21.082 0,28.913 7.831,7.831 21.082,7.831 28.913,0 l 24.094,-24.094 c 7.831,-7.83 7.831,-21.082 0,-28.913 z"
       id="path6" />
    <path
       style="fill:#f6c358"
       d="m 123.482,358.4 c -7.831,-7.831 -21.082,-7.831 -28.913,0 l -24.094,24.094 c -7.831,7.831 -7.831,21.082 0,28.913 7.831,7.831 21.082,7.831 28.913,0 l 24.094,-24.094 c 7.831,-7.831 7.831,-20.48 0,-28.913 z"
       id="path7" />
    <path
       style="fill:#f6c358"
       d="m 411.407,411.407 c 7.831,-7.831 7.831,-21.082 0,-28.913 L 387.313,358.4 c -7.831,-7.831 -21.082,-7.831 -28.913,0 -7.831,7.831 -7.831,21.082 0,28.913 l 24.094,24.094 c 7.831,7.831 21.082,7.831 28.913,0 z"
       id="path8" />
    <path
       style="fill:#f6c358"
       d="m 123.482,123.482 c 7.831,-7.831 7.831,-21.082 0,-28.913 L 99.388,70.475 c -7.831,-7.831 -21.082,-7.831 -28.913,0 -7.831,7.831 -7.831,21.082 0,28.913 l 24.094,24.094 c 7.831,7.831 20.48,7.831 28.913,0 z"
       id="path9" />
    <g
       id="g10">
</g>
    <g
       id="g11">
</g>
    <g
       id="g12">
</g>
    <g
       id="g13">
</g>
    <g
       id="g14">
</g>
    <g
       id="g15">
</g>
    <g
       id="g16">
</g>
    <g
       id="g17">
</g>
    <g
       id="g18">
</g>
    <g
       id="g19">
</g>
    <g
       id="g20">
</g>
    <g
       id="g21">
</g>
    <g
       id="g22">
</g>
    <g
       id="g23">
</g>
    <g
       id="g24">
</g>
  </g>
</svg>
